<svg width="281" height="249" viewBox="0 0 281 249" fill="none" xmlns="http://www.w3.org/2000/svg">
<path opacity="0.87" d="M18.4131 121.657C28.5642 137.134 43.0131 151.008 54.1658 164C65.3184 176.992 77.4947 189.93 83.4663 205.977C130.417 332.145 271.652 142.003 279.853 97.4243C281.878 86.4177 280.422 74.3412 272.492 66.5752C261.311 55.627 238.26 51.2274 202.629 52.9114C140.364 55.8542 111.247 35.9139 85.0645 30.9421C23.4887 19.2492 -15.8229 69.4601 18.4131 121.657Z" fill="url(#paint0_linear_226_779)"/>
<path d="M198.912 209.101C140.882 186.905 27.8945 290.683 2.64019 207.962C-11.8859 160.382 66.4379 77.8547 121.181 43.42C171.113 12.0111 231.667 21.6505 224.242 83.2684C217.723 137.365 299.416 247.542 198.912 209.101Z" fill="url(#paint1_linear_226_779)"/>
<path d="M50.2949 11.6284C49.3133 11.6283 48.3538 11.3372 47.5376 10.7917C46.7214 10.2463 46.0853 9.47116 45.7097 8.56424C45.3341 7.65732 45.2359 6.65939 45.4274 5.69663C45.619 4.73388 46.0917 3.84955 46.7859 3.15546C47.48 2.46137 48.3644 1.98871 49.3271 1.79724C50.2899 1.60577 51.2878 1.70409 52.1947 2.07976C53.1016 2.45544 53.8768 3.0916 54.4221 3.9078C54.9674 4.724 55.2585 5.68359 55.2585 6.66522C55.257 7.98113 54.7335 9.24271 53.803 10.1732C52.8725 11.1036 51.6109 11.627 50.2949 11.6284V11.6284ZM50.2949 4.08487C49.7846 4.08493 49.2858 4.23632 48.8615 4.51989C48.4372 4.80346 48.1065 5.20648 47.9112 5.67798C47.716 6.14948 47.6649 6.66829 47.7645 7.16881C47.8641 7.66933 48.1099 8.12907 48.4708 8.4899C48.8317 8.85074 49.2914 9.09647 49.792 9.196C50.2925 9.29554 50.8113 9.24442 51.2828 9.04911C51.7543 8.85381 52.1572 8.52307 52.4408 8.09874C52.7243 7.67442 52.8756 7.17555 52.8756 6.66522C52.8748 5.98106 52.6026 5.32517 52.1188 4.84143C51.635 4.35769 50.9791 4.0856 50.2949 4.08487V4.08487Z" fill="url(#paint2_linear_226_779)"/>
<path opacity="0.87" d="M18.4131 121.657C28.5642 137.134 43.0131 151.008 54.1658 164C65.3184 176.992 77.4947 189.93 83.4663 205.977C130.417 332.145 271.652 142.003 279.853 97.4243C281.878 86.4177 280.422 74.3412 272.492 66.5752C261.311 55.627 238.26 51.2274 202.629 52.9114C140.364 55.8542 111.247 35.9139 85.0645 30.9421C23.4887 19.2492 -15.8229 69.4601 18.4131 121.657Z" fill="url(#paint3_linear_226_779)"/>
<path d="M198.912 209.101C140.882 186.905 27.8945 290.683 2.64019 207.962C-11.8859 160.382 66.4379 77.8547 121.181 43.42C171.113 12.0111 231.667 21.6505 224.242 83.2684C217.723 137.365 299.416 247.542 198.912 209.101Z" fill="url(#paint4_linear_226_779)"/>
<path d="M50.2949 11.6284C49.3133 11.6283 48.3538 11.3372 47.5376 10.7917C46.7214 10.2463 46.0853 9.47116 45.7097 8.56424C45.3341 7.65732 45.2359 6.65939 45.4274 5.69663C45.619 4.73388 46.0917 3.84955 46.7859 3.15546C47.48 2.46137 48.3644 1.98871 49.3271 1.79724C50.2899 1.60577 51.2878 1.70409 52.1947 2.07976C53.1016 2.45544 53.8768 3.0916 54.4221 3.9078C54.9674 4.724 55.2585 5.68359 55.2585 6.66522C55.257 7.98113 54.7335 9.24271 53.803 10.1732C52.8725 11.1036 51.6109 11.627 50.2949 11.6284V11.6284ZM50.2949 4.08487C49.7846 4.08493 49.2858 4.23632 48.8615 4.51989C48.4372 4.80346 48.1065 5.20648 47.9112 5.67798C47.716 6.14948 47.6649 6.66829 47.7645 7.16881C47.8641 7.66933 48.1099 8.12907 48.4708 8.4899C48.8317 8.85074 49.2914 9.09647 49.792 9.196C50.2925 9.29554 50.8113 9.24442 51.2828 9.04911C51.7543 8.85381 52.1572 8.52307 52.4408 8.09874C52.7243 7.67442 52.8756 7.17555 52.8756 6.66522C52.8748 5.98106 52.6026 5.32517 52.1188 4.84143C51.635 4.35769 50.9791 4.0856 50.2949 4.08487V4.08487Z" fill="url(#paint5_linear_226_779)"/>
<rect x="34.6472" width="199" height="199" fill="#27282C"/>
<path d="M84.6675 131V102.968H68.5395V131H52.7955V64.472H68.5395V90.008H84.6675V64.472H100.411V131H84.6675ZM157.974 128.024C155.99 129.304 153.59 130.392 150.774 131.288C147.958 132.184 144.79 132.632 141.27 132.632C134.614 132.632 129.67 130.936 126.438 127.544C123.206 124.12 121.59 119.48 121.59 113.624V90.488H110.886V80.024H121.59V68.984L136.758 67.16V80.024H153.174L151.686 90.488H136.758V113.624C136.758 116.152 137.334 117.96 138.486 119.048C139.638 120.136 141.478 120.68 144.006 120.68C145.798 120.68 147.43 120.472 148.902 120.056C150.406 119.608 151.75 119.048 152.934 118.376L157.974 128.024ZM217.456 111.56C217.456 115.688 216.368 119.336 214.192 122.504C212.048 125.672 208.96 128.152 204.928 129.944C200.896 131.736 196.048 132.632 190.384 132.632C184.112 132.632 178.848 131.72 174.592 129.896C170.368 128.04 166.864 125.752 164.08 123.032L172.048 114.2C174.512 116.344 177.232 118.008 180.208 119.192C183.184 120.344 186.448 120.92 190 120.92C192.208 120.92 194.144 120.6 195.808 119.96C197.472 119.32 198.768 118.392 199.696 117.176C200.624 115.96 201.088 114.488 201.088 112.76C201.088 111.128 200.72 109.752 199.984 108.632C199.248 107.512 198 106.504 196.24 105.608C194.512 104.712 192.096 103.8 188.992 102.872C183.808 101.272 179.632 99.512 176.464 97.592C173.328 95.672 171.04 93.448 169.6 90.92C168.192 88.392 167.488 85.448 167.488 82.088C167.488 78.024 168.608 74.552 170.848 71.672C173.12 68.792 176.16 66.6 179.968 65.096C183.776 63.56 187.968 62.792 192.544 62.792C197.696 62.792 202.24 63.544 206.176 65.048C210.112 66.52 213.52 68.632 216.4 71.384L208.96 79.928C206.72 78.04 204.304 76.648 201.712 75.752C199.12 74.824 196.48 74.36 193.792 74.36C191.808 74.36 190.064 74.616 188.56 75.128C187.056 75.608 185.888 76.328 185.056 77.288C184.224 78.248 183.808 79.448 183.808 80.888C183.808 82.296 184.208 83.48 185.008 84.44C185.808 85.4 187.2 86.312 189.184 87.176C191.168 88.008 193.92 88.984 197.44 90.104C201.632 91.384 205.216 92.92 208.192 94.712C211.2 96.472 213.488 98.696 215.056 101.384C216.656 104.072 217.456 107.464 217.456 111.56Z" fill="white"/>
<rect x="34.6472" width="199" height="199" fill="#27282C"/>
<path d="M86.6355 97.4C86.6355 92.92 86.2515 89.272 85.4835 86.456C84.7475 83.64 83.7075 81.464 82.3635 79.928C81.0515 78.392 79.4995 77.336 77.7075 76.76C75.9155 76.184 73.9795 75.896 71.8995 75.896H68.5395V119.624H71.8995C74.0755 119.624 76.0595 119.288 77.8515 118.616C79.6755 117.912 81.2435 116.744 82.5555 115.112C83.8675 113.448 84.8755 111.176 85.5795 108.296C86.2835 105.416 86.6355 101.784 86.6355 97.4ZM102.955 97.4C102.955 102.808 102.379 107.448 101.227 111.32C100.075 115.16 98.4595 118.36 96.3795 120.92C94.3315 123.48 91.9475 125.496 89.2275 126.968C86.5075 128.44 83.5795 129.48 80.4435 130.088C77.3075 130.696 74.0755 131 70.7475 131H52.7955V64.472H69.5955C73.8515 64.472 77.9635 64.92 81.9315 65.816C85.9315 66.68 89.4995 68.296 92.6355 70.664C95.8035 73 98.3155 76.328 100.171 80.648C102.027 84.936 102.955 90.52 102.955 97.4ZM144.198 97.4C144.198 92.92 143.814 89.272 143.046 86.456C142.31 83.64 141.27 81.464 139.926 79.928C138.614 78.392 137.062 77.336 135.27 76.76C133.478 76.184 131.542 75.896 129.462 75.896H126.102V119.624H129.462C131.638 119.624 133.622 119.288 135.414 118.616C137.238 117.912 138.806 116.744 140.118 115.112C141.43 113.448 142.438 111.176 143.142 108.296C143.846 105.416 144.198 101.784 144.198 97.4ZM160.518 97.4C160.518 102.808 159.942 107.448 158.79 111.32C157.638 115.16 156.022 118.36 153.942 120.92C151.894 123.48 149.51 125.496 146.79 126.968C144.07 128.44 141.142 129.48 138.006 130.088C134.87 130.696 131.638 131 128.31 131H110.358V64.472H127.158C131.414 64.472 135.526 64.92 139.494 65.816C143.494 66.68 147.062 68.296 150.198 70.664C153.366 73 155.878 76.328 157.734 80.648C159.59 84.936 160.518 90.52 160.518 97.4ZM197.296 62.792C202.064 62.792 206.112 63.432 209.44 64.712C212.8 65.96 215.872 67.736 218.656 70.04L210.928 79.352C209.104 77.848 207.088 76.664 204.88 75.8C202.672 74.904 200.272 74.456 197.68 74.456C194.896 74.456 192.352 75.256 190.048 76.856C187.744 78.424 185.904 80.92 184.528 84.344C183.152 87.736 182.464 92.152 182.464 97.592C182.464 102.936 183.12 107.304 184.432 110.696C185.776 114.056 187.616 116.536 189.952 118.136C192.288 119.704 194.96 120.488 197.968 120.488C201.296 120.488 204.064 119.864 206.272 118.616C208.48 117.368 210.512 116.008 212.368 114.536L219.52 123.656C217.024 126.12 213.952 128.232 210.304 129.992C206.656 131.752 202.256 132.632 197.104 132.632C191.088 132.632 185.744 131.304 181.072 128.648C176.432 125.96 172.784 122.024 170.128 116.84C167.504 111.624 166.192 105.208 166.192 97.592C166.192 90.168 167.552 83.864 170.272 78.68C173.024 73.496 176.752 69.56 181.456 66.872C186.16 64.152 191.44 62.792 197.296 62.792Z" fill="white"/>
<defs>
<linearGradient id="paint0_linear_226_779" x1="5.7195" y1="138.89" x2="280.674" y2="138.89" gradientUnits="userSpaceOnUse">
<stop stop-color="#E22973"/>
<stop offset="1" stop-color="#FFB025"/>
</linearGradient>
<linearGradient id="paint1_linear_226_779" x1="246.137" y1="126.955" x2="-1.81301" y2="138.398" gradientUnits="userSpaceOnUse">
<stop stop-color="#EA5886"/>
<stop offset="0.9982" stop-color="#D02AA0"/>
</linearGradient>
<linearGradient id="paint2_linear_226_779" x1="2097.99" y1="1093.81" x2="2222.05" y2="1093.81" gradientUnits="userSpaceOnUse">
<stop stop-color="#E03A9F"/>
<stop offset="1" stop-color="#DC3864"/>
</linearGradient>
<linearGradient id="paint3_linear_226_779" x1="5.7195" y1="138.89" x2="280.674" y2="138.89" gradientUnits="userSpaceOnUse">
<stop stop-color="#E22973"/>
<stop offset="1" stop-color="#FFB025"/>
</linearGradient>
<linearGradient id="paint4_linear_226_779" x1="246.137" y1="126.955" x2="-1.81301" y2="138.398" gradientUnits="userSpaceOnUse">
<stop stop-color="#EA5886"/>
<stop offset="0.9982" stop-color="#D02AA0"/>
</linearGradient>
<linearGradient id="paint5_linear_226_779" x1="2097.99" y1="1093.81" x2="2222.05" y2="1093.81" gradientUnits="userSpaceOnUse">
<stop stop-color="#E03A9F"/>
<stop offset="1" stop-color="#DC3864"/>
</linearGradient>
</defs>
</svg>
